<svg width="69" height="53" viewBox="0 0 69 53" fill="#BE00FF" xmlns="http://www.w3.org/2000/svg">
<g clip-path="url(#clip0)">
<path d="M55.6717 42.5187L68.6657 36.9158L68.5068 36.5449L55.8174 42.0154L58.9699 31.4718L68.2948 27.2199L68.1359 26.8623L59.1288 30.9685L60.4666 26.5179L62.0826 21.7892L68.5465 18.5837L68.3743 18.2261L61.7647 21.511L60.0957 26.4119L55.6584 41.1941V12.239L66.7716 0.264914L66.4802 0L55.3141 12.0271H55.2611V12.0801L47.6845 20.2527L45.2473 6.98048H44.9824L40.8365 26.5311L40.5318 27.9484L40.4789 28.0014L28.9551 41.3133L29.1405 30.5313L35.7369 25.7629L35.4985 25.445L29.1538 30.0413L29.4452 22.4647L36.0945 17.6433L35.8561 17.3254L29.3127 22.0673L29.0611 22.2528V22.319L28.7564 30.3327L28.5577 41.8829L19.4182 35.4058L26.6768 23.6171L26.4914 23.4316L18.5837 28.2266L18.4645 51.0887L0.516582 28.0412L22.266 4.71547L21.9746 4.45056L0 28.0147L18.6235 51.9231L18.8619 51.8437L18.9414 35.5382L28.5842 42.3862L40.3597 28.7432L35.366 52.3205L35.7501 52.4L40.8895 28.1206L47.4064 21.1004L49.6846 33.5249L50.082 33.4586L47.7508 20.7428L55.2478 12.6761V42.5187H55.6717ZM41.2339 26.5974L45.1016 8.35804L47.3534 20.6103L41.0749 27.3656L41.2339 26.5974ZM18.9811 28.4253L25.7629 24.3191L18.9414 35.4058L18.9811 28.4253Z" fill="white" stroke="white"/>
</g>
<defs>
<clipPath id="clip0">
<rect width="68.6657" height="52.4" fill="white"/>
</clipPath>
</defs>
</svg>
